<?xml version="1.0" ?><!DOCTYPE svg  PUBLIC '-//W3C//DTD SVG 1.1//EN'  'http://www.w3.org/Graphics/SVG/1.1/DTD/svg11.dtd'><svg height="1024px" style="enable-background:new 0 0 1024 1024;" version="1.1" viewBox="0 0 1024 1024" width="1024px" xml:space="preserve" xmlns="http://www.w3.org/2000/svg" xmlns:xlink="http://www.w3.org/1999/xlink"><g id="ic_x5F_library"><path d="M219.801,167.578l-119.487-7.242   c-14.079-0.859-26.298,10.086-27.142,24.313l-1.25,20.993L242.614,216l1.25-21.016   C244.708,180.758,233.879,168.429,219.801,167.578z M32.046,877.29c-0.844,14.25,9.969,26.563,24.063,27.423l119.472,7.25   c14.094,0.859,26.298-10.078,27.142-24.313l1.25-21L33.296,856.29L32.046,877.29z M35.077,826.32l170.661,10.344l35.095-590.702   L70.141,235.626L35.077,826.32z M252.458,817.773h208.146V202.344H252.458V817.773z M273.427,702.536h166.191v75.814H273.427   V702.536z M434.962,111.99H278.114c-14.125,0-25.657,11.649-25.657,25.907v34.415h208.146v-34.415   C460.603,123.639,449.056,111.99,434.962,111.99z M252.458,882.228c0,14.235,11.532,25.907,25.657,25.907h156.848   c14.094,0,25.641-11.672,25.641-25.907v-34.423H252.458V882.228z M605.661,248.916c-0.656-14.243-12.719-25.352-26.813-24.688   l-76.916,3.609c-14.094,0.664-25.095,12.852-24.438,27.094l20.157,438.635l128.167-6.031L605.661,248.916z M631.021,800.819   l-128.151,6l3.594,78.314c0.656,14.22,12.719,25.329,26.806,24.688l76.938-3.625c14.095-0.656,25.063-12.845,24.423-27.095   L631.021,800.819z M626.928,711.583l-128.167,6.031l1.797,39.22l128.183-6.016L626.928,711.583z M949.404,185.656   c-0.875-14.227-13.109-25.149-27.188-24.266l-87.471,5.492c-14.078,0.867-24.876,13.235-24.001,27.469l1.281,21l138.66-8.703   L949.404,185.656z M952.529,236.618l-138.66,8.696l36.282,590.631l138.66-8.688L952.529,236.618z M991.952,878.212l-1.297-20.984   l-138.66,8.688l1.281,21c0.875,14.235,13.126,25.142,27.188,24.251l87.471-5.484C982.03,904.822,992.812,892.446,991.952,878.212z    M672.897,814.397h128.315v-40.595H672.897V814.397z M775.572,185.383h-77.018c-14.11,0-25.657,11.656-25.657,25.915v532.49   h128.315v-532.49C801.213,197.039,789.682,185.383,775.572,185.383z M781.65,342.395h-89.159V277.51h89.159V342.395z    M672.897,882.228c0,14.235,11.547,25.907,25.657,25.907h77.018c14.109,0,25.641-11.672,25.641-25.907v-37.813H672.897V882.228z" style="fill-rule:evenodd;clip-rule:evenodd;fill:#333333;"/></g><g id="Layer_1"/></svg>