<?xml version="1.0" ?><!DOCTYPE svg  PUBLIC '-//W3C//DTD SVG 1.1//EN'  'http://www.w3.org/Graphics/SVG/1.1/DTD/svg11.dtd'><svg enable-background="new 0 0 256 256" height="256px" id="Layer_1" version="1.1" viewBox="0 0 256 256" width="256px" xml:space="preserve" xmlns="http://www.w3.org/2000/svg" xmlns:xlink="http://www.w3.org/1999/xlink"><g><g><path d="M34.465,36.084l56.357,7.921l2.914,6.618c-0.732,1.783-1.135,3.697-1.107,5.726L38.74,48.775     L15.762,212.274l163.5,22.979L202.24,71.754l-66.613-9.362c3.525-3.952,5.438-8.96,3.9-14.698l-0.021-0.08l82.029-11.529     c3.273-0.453,6.297,1.834,6.75,5.109l24.645,175.354c0.453,3.275-1.834,6.297-5.109,6.75l-55.893,7.855l-1.643,11.68     c-0.453,3.275-3.475,5.563-6.75,5.109L128,240.138l-55.535,7.805c-3.275,0.453-6.297-1.834-6.75-5.109l-1.643-11.68L8.18,223.298     c-3.273-0.453-5.561-3.475-5.109-6.75L27.715,41.193C28.168,37.919,31.191,35.632,34.465,36.084L34.465,36.084z M125.049,70.953     c0.57,2.131-0.697,4.32-2.828,4.891c-2.131,0.569-4.32-0.697-4.891-2.828l-2.914-10.875c-5.836,0.575-10.682-1.207-11.594-4.612     c-0.527-1.965,0.354-4.117,2.217-6.052L96.621,31.36c-4.398-0.926-7.213-1.707-8.426-6.241     c-1.217-4.534,5.773-13.05,16.441-15.908c10.67-2.859,20.98,1.021,22.195,5.556s-0.832,6.617-4.178,9.617l2.268,21.766     c2.582,0.743,4.42,2.167,4.947,4.132c0.912,3.404-2.395,7.372-7.736,9.792L125.049,70.953L125.049,70.953z" fill="#3B4652"/><path clip-rule="evenodd" d="M91.695,148.808c-1.199,8.529,1.68,13.281,8.635,14.26     c8.77,1.232,12.236-5.902,14.055-14.701l2.689-13.278C104.457,130.531,93.752,134.164,91.695,148.808L91.695,148.808z      M154.857,149.96c-2.01,14.303-11.023,30.535-26.922,28.301c-5.596-0.787-10.338-4.285-11.816-9.639l-0.973-0.139     c-5.102,4.604-11.016,6.432-17.764,5.484c-14.709-2.068-21.785-12.754-19.732-27.365c2.443-17.382,16.121-26.716,33.348-24.295     c5.193,0.729,12.109,2.579,17.574,4.768c2.242,0.896,3.504,3.197,3.057,5.568l-4.82,25.555c-0.789,5.607,0.348,8.639,3.41,9.07     c7.1,0.996,10.449-12.619,11.389-19.299c2.758-19.62-8.156-34.369-27.754-37.124c-25.277-3.553-42.303,10.969-45.799,35.843     c-4.283,30.488,16.891,41.27,44.334,40.068c3.051-0.133,6.102-0.416,9.143-0.848c3.311-0.471,6.121,2.334,5.654,5.645     l-0.201,1.439c-0.299,2.121-1.818,3.752-3.916,4.195c-8.184,1.732-16.9,1.949-26.148,0.65     c-29.688-4.172-46.568-22.809-42.369-52.689c4.365-31.062,29.094-50.243,60.791-45.789     C142.141,103.127,158.682,122.75,154.857,149.96L154.857,149.96z" fill="#2B79C2" fill-rule="evenodd"/></g></g></svg>