<?xml version="1.0" ?><!DOCTYPE svg  PUBLIC '-//W3C//DTD SVG 1.1//EN'  'http://www.w3.org/Graphics/SVG/1.1/DTD/svg11.dtd'><svg enable-background="new 0 0 128 128" id="Layer_1" version="1.1" viewBox="0 0 128 128" xml:space="preserve" xmlns="http://www.w3.org/2000/svg" xmlns:xlink="http://www.w3.org/1999/xlink"><g><circle cx="64" cy="64" fill="#455E6B" r="63.5"/><path d="M94.3,25.5l-2,2.4L41.7,90.5L77.6,126c28.5-6.2,49.9-31.6,49.9-62c0-2-0.1-4-0.3-5.9L94.3,25.5z" fill="#364E59"/><g><g><polygon fill="#EBEBEB" points="94.3,102.4 54.7,102.4 33.7,83.1 33.7,25.6 94.3,25.6    "/><g><path d="M47,40.4c-0.4,0.2-1.1,0.4-2.1,0.4c-2.3,0-3.9-1.4-3.9-4c0-2.5,1.7-4.2,4.2-4.2c1,0,1.6,0.2,1.9,0.4      l-0.2,0.8c-0.4-0.2-0.9-0.3-1.6-0.3c-1.9,0-3.1,1.2-3.1,3.3c0,2,1.1,3.2,3.1,3.2c0.6,0,1.3-0.1,1.7-0.3L47,40.4z" fill="#455E6B"/><path d="M50.2,40.7l-2.6-8h1.1l1.2,3.9c0.3,1.1,0.6,2,0.9,3h0c0.2-0.9,0.6-1.9,0.9-3l1.4-3.9h1.1l-2.9,8H50.2z" fill="#455E6B"/></g><g><rect fill="#B2BDB2" height="0.5" width="18.1" x="69.7" y="33.3"/></g><g><rect fill="#B2BDB2" height="0.5" width="42.9" x="44.8" y="55.8"/></g><g><rect fill="#B2BDB2" height="0.5" width="47.5" x="40.3" y="59.5"/></g><g><rect fill="#B2BDB2" height="0.5" width="47.5" x="40.3" y="63.8"/></g><g><rect fill="#B2BDB2" height="0.5" width="47.5" x="40.3" y="72.5"/></g><g><rect fill="#B2BDB2" height="0.5" width="47.5" x="40.3" y="77.2"/></g><g><rect fill="#B2BDB2" height="0.5" width="37.9" x="40.3" y="68.1"/></g><g><rect fill="#B2BDB2" height="0.5" width="11.8" x="76" y="36.4"/></g><g><rect fill="#B2BDB2" height="0.5" width="14.3" x="73.4" y="39.6"/></g><g><rect fill="#B2BDB2" height="0.5" width="15.2" x="72.5" y="42.8"/></g><g><rect fill="#B2BDB2" height="0.5" width="18.1" x="69.7" y="86.7"/></g><g><rect fill="#B2BDB2" height="0.5" width="11.8" x="76" y="89.8"/></g><g><rect fill="#B2BDB2" height="0.5" width="14.3" x="73.4" y="93"/></g><g><rect fill="#B2BDB2" height="0.5" width="15.2" x="72.5" y="96.1"/></g><path d="M33.7,83.1c0,0,7.4,6.2,13.3-1.9l7.6,21L33.7,83.1z" fill="#98A898"/></g><g><polygon fill="#EDCC7B" points="84.5,89 88,94.8 81.8,92.2 81.1,88.8    "/><path d="M86.9,93l1.1,1.8l-2-0.8c0-0.2,0.2-0.4,0.3-0.6C86.6,93.1,86.7,93.1,86.9,93z" fill="#37505B"/><polygon fill="#EB6054" points="37.9,50.6 83.1,89.6 84.5,89 39.3,50    "/><polygon fill="#CB3636" points="37,51.7 82.2,90.7 83.1,89.6 37.9,50.6    "/><polygon fill="#B92C27" points="36.6,53.2 81.8,92.2 82.2,90.7 37,51.7    "/></g></g></g></svg>